<?xml version="1.0" encoding="UTF-8"?>
<svg id="Layer_1" data-name="Layer 1" xmlns="http://www.w3.org/2000/svg" viewBox="0 0 618 128.37">
  <defs>
    <style>
      .cls-1 {
        fill: #f2f2f2;
      }
    </style>
  </defs>
  <rect class="cls-1" x="2" y="39.88" width="16.57" height="86.49"/>
  <path class="cls-1" d="M10.38,1.64c-3.04,0-5.53,1-7.47,3C.97,6.65,0,9.1,0,12.02s.97,5.55,2.91,7.56c1.94,2,4.43,3,7.47,3s5.52-1,7.47-3c1.94-2,2.91-4.52,2.91-7.56s-.97-5.37-2.91-7.37c-1.94-2-4.43-3-7.47-3Z"/>
  <polygon class="cls-1" points="107.16 81.22 57.72 0 45.7 0 45.7 126.37 62.82 126.37 62.82 37.44 101.06 100.51 113.26 100.51 151.5 37.44 151.5 126.37 168.61 126.37 168.61 0 156.6 0 107.16 81.22"/>
  <path class="cls-1" d="M317.38,40.33c-5.34-2.85-11.35-4.28-18.03-4.28s-13.17,1.46-18.75,4.37c-3.76,1.96-6.98,4.51-9.69,7.62-2.54-3.17-5.59-5.78-9.16-7.81-4.92-2.79-10.41-4.19-16.48-4.19-6.68,0-12.6,1.37-17.75,4.1-2.3,1.22-4.39,2.68-6.28,4.36v-6.64h-28.04v88.5h28.04v-51.71c0-2.91.64-5.4,1.91-7.47,1.27-2.06,3-3.67,5.19-4.83,2.19-1.15,4.67-1.73,7.47-1.73,4.01,0,7.37,1.25,10.11,3.73,2.73,2.49,4.1,5.92,4.1,10.29v51.71h28.04v-51.71c0-2.91.61-5.4,1.82-7.47,1.21-2.06,2.94-3.67,5.19-4.83,2.25-1.15,4.7-1.73,7.37-1.73,3.88,0,7.19,1.25,9.92,3.73,2.73,2.49,4.1,5.92,4.1,10.29v51.71h28.04v-54.99c0-7.4-1.52-13.72-4.55-18.94-3.04-5.22-7.22-9.25-12.56-12.11Z"/>
  <path class="cls-1" d="M413.52,45.19c-2.39-2.27-5.14-4.16-8.29-5.68-4.8-2.3-10.17-3.46-16.12-3.46-8.13,0-15.39,1.97-21.76,5.92-6.37,3.95-11.41,9.41-15.11,16.39-3.7,6.98-5.55,14.9-5.55,23.76s1.85,16.72,5.55,23.58c3.7,6.86,8.77,12.32,15.21,16.39,6.43,4.07,13.66,6.1,21.67,6.1,6.07,0,11.5-1.16,16.3-3.46,3.08-1.48,5.78-3.33,8.1-5.53v7.17h27.49V37.87h-27.49v7.32ZM394.94,102.88c-3.76,0-7.13-.88-10.11-2.64-2.98-1.76-5.34-4.22-7.1-7.37-1.76-3.16-2.64-6.74-2.64-10.74s.88-7.59,2.64-10.74c1.76-3.16,4.13-5.61,7.1-7.38,2.97-1.76,6.34-2.64,10.11-2.64s7.34.88,10.38,2.64c3.03,1.76,5.34,4.19,6.92,7.28,1.58,3.1,2.37,6.65,2.37,10.65,0,6.19-1.79,11.23-5.37,15.11-3.58,3.89-8.35,5.83-14.29,5.83Z"/>
  <polygon class="cls-1" points="501.1 1.27 473.06 1.27 473.06 37.87 453.21 37.87 453.21 61.73 473.06 61.73 473.06 126.37 501.1 126.37 501.1 61.73 521.13 61.73 521.13 37.87 501.1 37.87 501.1 1.27"/>
  <path class="cls-1" d="M612.17,57.18c-3.89-6.67-9.17-11.9-15.84-15.66-6.68-3.76-14.45-5.64-23.31-5.64s-17.06,2-24.22,6.01c-7.16,4.01-12.81,9.5-16.93,16.48-4.13,6.98-6.19,14.84-6.19,23.58s2.12,17,6.37,24.04c4.25,7.04,10.07,12.54,17.48,16.48,7.4,3.94,15.9,5.92,25.49,5.92,7.53,0,14.38-1.25,20.58-3.73,6.19-2.49,11.47-6.34,15.84-11.56l-15.48-15.29c-2.67,3.04-5.77,5.31-9.29,6.83-3.52,1.52-7.41,2.28-11.65,2.28-4.73,0-8.83-1-12.29-3-3.46-2-6.13-4.88-8.01-8.65-.58-1.17-1.07-2.41-1.47-3.7l63.29-.3c.61-2.18,1-4.16,1.18-5.92.18-1.76.27-3.49.27-5.19,0-8.62-1.94-16.27-5.83-22.94ZM562,60.27c3.22-2.06,7.01-3.1,11.38-3.1,4.01,0,7.43.91,10.29,2.73,2.85,1.82,5.01,4.4,6.46,7.74.58,1.32,1.04,2.78,1.41,4.35l-38.32.22c.36-1.19.79-2.32,1.31-3.39,1.76-3.64,4.25-6.49,7.46-8.56Z"/>
</svg>